<svg width="14" height="14" viewBox="0 0 14 14" fill="none" xmlns="http://www.w3.org/2000/svg">
<path d="M13.4685 9.24379C13.6215 8.87929 13.1843 8.56879 12.8175 8.73079C12.0843 9.05225 11.2923 9.21775 10.4918 9.21679C7.353 9.21679 4.809 6.72379 4.809 3.64804C4.80868 2.60967 5.10365 1.59261 5.6595 0.715544C5.8725 0.379544 5.61675 -0.0854557 5.22675 0.0135443C2.22 0.780794 0 3.45979 0 6.64654C0 10.4318 3.13125 13.5 6.9945 13.5C9.9195 13.5 12.4245 11.7413 13.4685 9.24379Z" fill="#FFE1CD"/>
<path d="M9.45813 0.0773393C9.06063 -0.188161 8.58663 0.285839 8.85138 0.683339L9.32388 1.39209C9.51575 1.67939 9.61815 2.01711 9.61815 2.36259C9.61815 2.70807 9.51575 3.04579 9.32388 3.33309L8.85138 4.04184C8.58663 4.43934 9.06139 4.91334 9.45889 4.64784L10.1669 4.17534C10.4542 3.98347 10.7919 3.88107 11.1374 3.88107C11.4829 3.88107 11.8206 3.98347 12.1079 4.17534L12.8166 4.64784C13.2141 4.91334 13.6881 4.43934 13.4226 4.04184L12.9501 3.33309C12.7583 3.04579 12.6559 2.70807 12.6559 2.36259C12.6559 2.01711 12.7583 1.67939 12.9501 1.39209L13.4226 0.683339C13.6881 0.285839 13.2141 -0.188161 12.8159 0.0773393L12.1079 0.549839C11.8206 0.741704 11.4829 0.844106 11.1374 0.844106C10.7919 0.844106 10.4542 0.741704 10.1669 0.549839L9.45813 0.0773393Z" fill="#FFE1CD"/>
</svg>
